<svg width="580" height="586" viewBox="0 0 580 586" fill="none" xmlns="http://www.w3.org/2000/svg">
<path opacity="0.2" d="M-2.56149e-05 586L42.0595 438.28C14.8826 393.33 0.556748 341.997 0.55675 289.163C0.556757 129.713 130.527 1.08705e-05 290.278 1.78534e-05C450.029 2.48364e-05 580 129.713 580 289.148C580 448.582 450.029 578.281 290.278 578.281C239.431 578.281 189.667 564.929 145.681 539.563L-2.56149e-05 586ZM534.856 289.148C534.856 154.554 425.14 45.055 290.278 45.055C155.417 45.055 45.7012 154.554 45.7012 289.148C45.7012 336.696 59.425 382.787 85.4131 422.45L91.0411 431.056L66.4224 517.532L151.67 490.363L160.548 495.92C199.523 520.325 244.382 533.241 290.278 533.241C425.14 533.241 534.856 423.742 534.856 289.163L534.856 289.148Z" fill="#BEC1C4"/>
</svg>
