<svg width="14" height="14" viewBox="0 0 14 14"  xmlns="http://www.w3.org/2000/svg">
	<path d="M12.7956 13.0003H7.91285L7.86766 12.2512V9.87672C7.86766 9.67183 7.77968 9.47469 7.62631 9.33652C7.46781 9.19329 7.27028 9.12758 7.05495 9.14645C6.67529 9.17914 6.37814 9.53332 6.37814 9.95255V12.9559L5.61712 13.0003H1.20401C0.540213 13.0003 0 12.4686 0 11.8151V6.43025C0 6.09562 0.14481 5.77513 0.397457 5.55069L6.31104 0.302972C6.77183 -0.106479 7.48766 -0.0994024 7.94092 0.318811L13.6193 5.56046C13.8614 5.78356 14.0003 6.09865 14.0003 6.4252V11.8151C14.0003 12.4686 13.4601 13.0003 12.796 13.0003H12.7956ZM8.89468 11.9894H12.7956C12.8936 11.9894 12.973 11.9112 12.973 11.8151V6.4252C12.973 6.37802 12.9521 6.3305 12.9168 6.29815L7.2381 1.05616C7.17271 0.995838 7.06522 0.99449 6.9988 1.05346L1.08522 6.30118C1.04825 6.33387 1.02702 6.38105 1.02702 6.43025V11.8151C1.02702 11.9112 1.10644 11.9894 1.20401 11.9894H5.35146V9.95255C5.35146 9.01367 6.0601 8.21735 6.96491 8.1395C7.46712 8.09569 7.9488 8.2561 8.32023 8.59142C8.68517 8.92066 8.89434 9.38909 8.89434 9.87706V11.9897L8.89468 11.9894Z" fill="currentColor"/>
</svg>
