<svg width="75" height="75" viewBox="0 0 75 75" fill="none" xmlns="http://www.w3.org/2000/svg">
	<g clip-path="url(#clip0_27_381)">
		<path d="M37.4915 74.1317C57.7273 74.1317 74.1317 57.7273 74.1317 37.4915C74.1317 17.2557 57.7273 0.851318 37.4915 0.851318C17.2557 0.851318 0.851318 17.2557 0.851318 37.4915C0.851318 57.7273 17.2557 74.1317 37.4915 74.1317Z"/>
		<path d="M37.4915 75C16.8218 75 0 58.1782 0 37.4915C0 16.8048 16.8218 0 37.4915 0C58.1612 0 74.983 16.8218 74.983 37.4915C74.983 58.1612 58.1612 74.983 37.4915 74.983V75ZM37.4915 1.70261C17.7582 1.70261 1.70261 17.7582 1.70261 37.4915C1.70261 57.2247 17.7582 73.2804 37.4915 73.2804C57.2247 73.2804 73.2804 57.2247 73.2804 37.4915C73.2804 17.7582 57.2418 1.70261 37.4915 1.70261Z" fill="#ED7951"/>
		<path d="M20.5675 36.3337C17.8774 36.3337 15.3065 35.3121 13.2974 33.4393C12.0545 32.2815 11.9864 30.3235 13.1442 29.0806C13.706 28.4847 14.4722 28.1271 15.2894 28.0931C16.1407 28.0931 16.9069 28.3655 17.5028 28.9103C18.7457 30.0681 20.9081 31.0216 24.0068 28.9444C25.42 28.0079 27.3439 28.3825 28.2804 29.7957C29.2168 31.2089 28.8422 33.1328 27.4291 34.0692C25.1986 35.5675 22.8831 36.3167 20.5675 36.3167V36.3337ZM15.3916 29.7957C15.3916 29.7957 15.3575 29.7957 15.3405 29.7957C14.9659 29.7957 14.6254 29.966 14.37 30.2384C13.8422 30.8002 13.8763 31.6686 14.4381 32.1964C15.4257 33.1158 17.5199 34.6311 20.5505 34.6311C22.5255 34.6311 24.5176 33.9671 26.4756 32.6731C26.7821 32.4688 26.9864 32.1623 27.0715 31.7877C27.1396 31.4302 27.0715 31.0556 26.8672 30.7492C26.4415 30.1192 25.5902 29.9489 24.9432 30.3746C20.5335 33.3201 17.4518 31.2089 16.328 30.1703C16.0726 29.9319 15.7321 29.7957 15.3916 29.7957Z" fill="#00DAD0"/>
		<path d="M43.6379 47.5198C42.6845 47.5198 41.765 47.0942 41.1521 46.2769C40.1476 44.9148 40.437 42.9739 41.7991 41.9523C43.1782 40.9307 44.4892 39.0068 43.025 35.5505C42.361 33.9841 43.0931 32.1793 44.6425 31.4983C46.2089 30.8343 48.0307 31.5664 48.6947 33.1158C49.7503 35.5845 50.0738 38.0022 49.6481 40.2667C49.1544 42.9058 47.6731 45.2554 45.4767 46.8899C44.9319 47.2985 44.2849 47.5028 43.6379 47.5028V47.5198ZM45.8513 32.9625C45.664 32.9625 45.4938 32.9966 45.3065 33.0817C44.6084 33.3882 44.2849 34.2054 44.5744 34.9035C46.6515 39.79 44.0295 42.429 42.8036 43.3314C42.1907 43.7911 42.0545 44.6595 42.5142 45.2724C42.9739 45.8853 43.8422 46.0045 44.4552 45.5618C45.5278 44.7616 47.4177 42.9909 47.9796 39.9943C48.3371 38.0533 48.0647 35.9761 47.1283 33.8138C46.9069 33.286 46.3961 32.9795 45.8513 32.9795V32.9625Z" fill="#00DAD0"/>
		<path d="M21.3848 62.0772C21.1294 62.0772 20.874 62.0431 20.6016 61.975C19.8013 61.7707 19.1373 61.2599 18.7117 60.5619C18.286 59.8638 18.1838 59.0295 18.3882 58.2293C19.0522 55.6243 20.2781 53.5301 21.9977 51.9807C23.9897 50.193 26.6458 49.2395 29.353 49.2906C30.1702 49.2906 30.9534 49.6481 31.5153 50.227C32.0942 50.8229 32.4006 51.6061 32.3836 52.4234C32.3496 54.126 30.9704 55.437 29.2338 55.454C27.446 55.3859 25.3008 56.1521 24.3643 59.7787C24.16 60.5789 23.6492 61.2429 22.9512 61.6686C22.4744 61.958 21.9296 62.0942 21.3848 62.0942V62.0772ZM29.1657 50.9762C27.7866 50.9762 25.3178 51.2997 23.1555 53.2406C21.6912 54.5517 20.6356 56.3734 20.0567 58.6549C19.9716 59.0125 20.0227 59.3871 20.2099 59.7106C20.3972 60.0341 20.7037 60.2554 21.0613 60.3405C21.4188 60.4257 21.7934 60.3746 22.1169 60.1873C22.4404 60 22.6617 59.6935 22.7468 59.336C24.0749 54.2111 27.8206 53.7684 29.3019 53.7344H29.3359C29.6935 53.7344 30.034 53.5982 30.2894 53.3428C30.5618 53.0874 30.7151 52.7469 30.7151 52.3723C30.7151 51.9977 30.5788 51.6572 30.3235 51.3848C30.0681 51.1124 29.7275 50.9591 29.353 50.9591C29.3019 50.9591 29.2508 50.9591 29.1827 50.9591L29.1657 50.9762Z" fill="#00DAD0"/>
		<path d="M40.3008 21.0102C38.7855 21.0102 37.4745 19.9035 37.2531 18.3712C37.0148 16.6856 35.9421 14.6084 32.1964 14.2679C30.5108 14.1146 29.2509 12.6163 29.4041 10.9137C29.5573 9.22815 31.0556 7.96821 32.7582 8.12145C35.4313 8.35982 37.7128 9.22815 39.5176 10.6754C41.6118 12.361 42.9739 14.7787 43.3655 17.4858C43.6039 19.1714 42.4291 20.7378 40.7605 20.9762C40.6073 20.9932 40.4711 21.0102 40.3178 21.0102H40.3008ZM32.4688 9.80703C32.1453 9.80703 31.8388 9.92622 31.5834 10.1305C31.294 10.3689 31.1237 10.6924 31.0897 11.067C31.0216 11.8331 31.5834 12.4972 32.3496 12.5653C37.6277 13.042 38.7174 16.6175 38.9387 18.1328C39.0409 18.8819 39.773 19.4098 40.5051 19.3076C41.2543 19.2054 41.7821 18.4903 41.6799 17.7412C41.4926 16.4132 40.8116 13.9103 38.445 12.0034C36.8956 10.7605 34.9376 10.0284 32.605 9.82406C32.571 9.82406 32.5199 9.82406 32.4858 9.82406L32.4688 9.80703Z" fill="#00DAD0"/>
		<path d="M57.0716 63.7798C56.4075 63.7798 55.7776 63.5755 55.2327 63.1669C54.5687 62.6731 54.1431 61.958 54.0239 61.1408C53.7855 59.4552 52.7129 57.378 48.9671 57.0375C47.2816 56.8842 46.0216 55.3859 46.1749 53.6833C46.3281 51.9977 47.8604 50.7378 49.529 50.891C52.2021 51.1294 54.4836 51.9977 56.2884 53.445C58.3826 55.1305 59.7447 57.5482 60.1363 60.2554C60.3746 61.941 59.1998 63.5074 57.5313 63.7458C57.378 63.7628 57.2248 63.7798 57.0886 63.7798H57.0716ZM49.2566 52.5766C48.5415 52.5766 47.9456 53.1215 47.8775 53.8366C47.8094 54.6027 48.3712 55.2668 49.1374 55.3349C54.4155 55.8116 55.5052 59.3871 55.7265 60.9024C55.7776 61.2599 55.9649 61.5834 56.2713 61.8048C56.5608 62.0261 56.9354 62.1112 57.2929 62.0602C58.0421 61.958 58.5699 61.2429 58.4677 60.4938C58.2804 59.1657 57.5994 56.6629 55.2327 54.756C53.6834 53.5131 51.7254 52.7809 49.3928 52.5766C49.3587 52.5766 49.3077 52.5766 49.2736 52.5766H49.2566Z" fill="#00DAD0"/>
		<path d="M66.1294 35.3973C64.6141 35.3973 63.3031 34.2906 63.0818 32.7583C62.8434 31.0727 61.7707 28.9955 58.025 28.655C56.3394 28.5017 55.0795 27.0034 55.2327 25.3008C55.386 23.6152 56.9013 22.3553 58.5869 22.5085C61.26 22.7469 63.5415 23.6152 65.3462 25.0625C67.4404 26.748 68.8025 29.1657 69.1941 31.8729C69.4325 33.5585 68.2577 35.1249 66.5891 35.3632C66.4359 35.3803 66.2997 35.3973 66.1465 35.3973H66.1294ZM58.2974 24.1941C57.5823 24.1941 56.9864 24.739 56.9183 25.4541C56.8502 26.2202 57.4121 26.8842 58.1782 26.9523C63.4563 27.4291 64.546 31.0046 64.7673 32.5199C64.8695 33.269 65.5846 33.8139 66.3337 33.6947C67.0829 33.5925 67.6107 32.8774 67.5085 32.1283C67.3213 30.8003 66.6402 28.2974 64.2736 26.3905C62.7242 25.1476 60.7662 24.4155 58.4336 24.2111C58.3996 24.2111 58.3485 24.2111 58.3144 24.2111L58.2974 24.1941Z" fill="#00DAD0"/>
		<path d="M35.2951 12.4291H34.4098C33.933 12.4291 33.5585 12.0545 33.5585 11.5777C33.5585 11.101 33.933 10.7264 34.4098 10.7264H35.2951C35.7719 10.7264 36.1464 11.101 36.1464 11.5777C36.1464 12.0545 35.7719 12.4291 35.2951 12.4291Z" fill="#00DAD0"/>
		<path d="M38.1044 15.2384C37.8491 15.2384 37.5937 15.1192 37.4234 14.8979C36.9807 14.3019 36.8786 13.4847 37.168 12.8207C37.3553 12.395 37.8661 12.1907 38.2917 12.378C38.7174 12.5653 38.9217 13.059 38.7344 13.5017C38.6833 13.6209 38.7004 13.7741 38.7855 13.8763C39.0749 14.2509 38.9898 14.7787 38.6323 15.0681C38.479 15.1873 38.2917 15.2384 38.1215 15.2384H38.1044Z" fill="#00DAD0"/>
		<path d="M40.7605 18.8138C40.3689 18.8138 40.0113 18.5414 39.9262 18.1328C39.9092 18.0476 39.824 17.9455 39.7389 17.9285C39.2962 17.7923 39.0238 17.3155 39.16 16.8728C39.2962 16.4302 39.7729 16.1748 40.2156 16.294C40.9137 16.4983 41.4415 17.0942 41.5947 17.7923C41.6799 18.252 41.3904 18.6946 40.9307 18.7968C40.8796 18.7968 40.8115 18.7968 40.7605 18.7968V18.8138Z" fill="#00DAD0"/>
		<path d="M16.0215 32.5709C15.7832 32.5709 15.5448 32.4688 15.3745 32.2645C15.051 31.8899 14.8467 31.4472 14.7786 30.9705C14.7105 30.5108 15.017 30.0681 15.4937 30C15.9704 29.9319 16.3961 30.2384 16.4642 30.7151C16.4982 30.8853 16.5664 31.0556 16.6685 31.1748C16.975 31.5323 16.9239 32.0772 16.5664 32.3666C16.4131 32.5028 16.2088 32.5709 16.0215 32.5709Z" fill="#00DAD0"/>
		<path d="M18.899 34.7332C18.899 34.7332 18.7798 34.7332 18.7117 34.7162C18.5584 34.6822 18.4052 34.6822 18.2349 34.6992C17.7752 34.7673 17.3496 34.4268 17.2985 33.95C17.2474 33.4903 17.5709 33.0647 18.0477 33.0136C18.4052 32.9625 18.7628 32.9966 19.1033 33.0647C19.563 33.1668 19.8524 33.6265 19.7503 34.0863C19.6651 34.4779 19.3076 34.7503 18.916 34.7503L18.899 34.7332Z" fill="#00DAD0"/>
		<path d="M23.7003 32.571C23.4279 32.571 23.1725 32.4518 23.0022 32.2134C22.7298 31.8388 22.815 31.294 23.2066 31.0216C23.3598 30.9024 23.496 30.7492 23.5811 30.5789C23.7854 30.1533 24.2962 29.983 24.7219 30.2043C25.1475 30.4086 25.3178 30.9194 25.0965 31.3451C24.8921 31.7707 24.5686 32.1453 24.177 32.4177C24.0238 32.5199 23.8535 32.571 23.6833 32.571H23.7003Z" fill="#00DAD0"/>
		<path d="M20.6187 19.0011C20.4995 19.0011 20.3973 18.9841 20.2781 18.933C19.8525 18.7457 19.6482 18.252 19.8355 17.8093C20.193 16.958 21.1805 16.5153 22.0659 16.7707C22.5086 16.9069 22.781 17.3836 22.6448 17.8263C22.5086 18.269 22.0318 18.5244 21.5891 18.4052C21.5381 18.3882 21.4359 18.4392 21.4019 18.4903C21.2657 18.8138 20.9422 19.0011 20.6187 19.0011Z" fill="#00DAD0"/>
		<path d="M35.7207 30.8002C35.5505 30.8002 35.3972 30.7491 35.244 30.664C34.8013 30.3746 34.4948 29.8978 34.3927 29.353C34.2905 28.8082 34.3927 28.2463 34.6991 27.8207C34.9716 27.4291 35.4994 27.3269 35.891 27.5993C36.2826 27.8717 36.3847 28.3995 36.1123 28.7911C36.0783 28.8422 36.0612 28.9444 36.0783 29.0465C36.0953 29.1487 36.1464 29.2338 36.1974 29.2679C36.589 29.5233 36.6912 30.0511 36.4358 30.4427C36.2655 30.6981 35.9931 30.8172 35.7207 30.8172V30.8002Z" fill="#00DAD0"/>
		<path d="M15.9705 47.5199C15.8343 47.5199 15.6981 47.4858 15.5789 47.4177C15.1703 47.1964 15.0001 46.6856 15.2214 46.2769C15.4938 45.7491 16.0046 45.3405 16.6175 45.1702C17.2134 45 17.8604 45.0681 18.3882 45.3575C18.7969 45.5959 18.9331 46.1067 18.7117 46.5153C18.4734 46.9239 17.9456 47.0601 17.554 46.8388C17.4348 46.7707 17.2815 46.7707 17.1113 46.8048C16.9581 46.8558 16.8218 46.958 16.7537 47.0772C16.6005 47.3666 16.3111 47.5369 16.0046 47.5369L15.9705 47.5199Z" fill="#00DAD0"/>
		<path d="M44.0295 45.4597C44.0295 45.4597 43.9443 45.4597 43.9103 45.4597C43.5187 45.4086 43.1781 45.1703 42.9398 44.8297C42.7184 44.4892 42.6503 44.0806 42.7525 43.706C42.8717 43.2463 43.3484 42.9909 43.7911 43.1101C44.1486 43.2123 44.387 43.5187 44.4211 43.8592C44.7275 44.0295 44.9148 44.37 44.8637 44.7276C44.7956 45.1532 44.4381 45.4597 44.0295 45.4597Z" fill="#00DAD0"/>
		<path d="M46.6686 38.8536C46.5494 38.8536 46.4132 38.8195 46.294 38.7684C45.8683 38.5641 45.6981 38.0533 45.9024 37.6277C46.0045 37.4234 45.9535 37.1169 45.8002 36.9637C45.4767 36.6231 45.4938 36.0783 45.8343 35.7548C46.1748 35.4313 46.7196 35.4483 47.0431 35.7889C47.6901 36.4699 47.8434 37.5426 47.4347 38.3768C47.2815 38.6833 46.992 38.8536 46.6686 38.8536Z" fill="#00DAD0"/>
		<path d="M59.7957 27.4801C59.6424 27.4801 59.4722 27.4291 59.336 27.3439C59.0806 27.1737 58.7911 27.0885 58.4847 27.0715C58.0079 27.0715 57.6504 26.6629 57.6504 26.2032C57.6504 25.7264 58.042 25.3859 58.5187 25.3689C59.1317 25.3859 59.7276 25.5732 60.2384 25.9137C60.63 26.1691 60.7491 26.6969 60.4937 27.0885C60.3235 27.3439 60.0511 27.4801 59.7787 27.4801H59.7957Z" fill="#00DAD0"/>
		<path d="M65.4994 30.9365C65.3292 30.9365 65.1589 30.8854 65.0227 30.7832C64.6311 30.4938 64.3757 30.0341 64.3417 29.5063C64.3076 28.9785 64.4779 28.5017 64.8354 28.1612C65.1759 27.8377 65.7208 27.8377 66.0443 28.1612C66.3678 28.4847 66.3678 29.0125 66.0443 29.353C66.4189 29.6425 66.487 30.1873 66.2145 30.5789C66.0443 30.8173 65.7719 30.9365 65.4994 30.9365Z" fill="#00DAD0"/>
		<path d="M59.2679 46.1748C58.8763 46.1748 58.5188 45.9024 58.4337 45.5108C58.3145 44.966 58.4507 44.37 58.8253 43.8933C59.1828 43.4166 59.7276 43.1271 60.2895 43.1101C60.7662 43.1101 61.1578 43.4506 61.1749 43.9274C61.1919 44.4041 60.8343 44.7957 60.3576 44.8127C60.3065 44.8127 60.2384 44.8468 60.1703 44.9319C60.1022 45.017 60.0852 45.1022 60.1022 45.1362C60.2044 45.5959 59.9149 46.0556 59.4552 46.1408C59.3871 46.1408 59.336 46.1578 59.2679 46.1578V46.1748Z" fill="#00DAD0"/>
		<path d="M49.5289 55.6583C49.2735 55.6583 49.0181 55.5392 48.8479 55.3178C48.5414 54.9092 48.4563 54.3473 48.6095 53.8366C48.7627 53.3258 49.1203 52.9001 49.597 52.7128C50.0397 52.5426 50.5334 52.7469 50.7037 53.1896C50.874 53.6152 50.6697 54.0919 50.261 54.2792C50.5334 54.6538 50.4313 55.1986 50.0567 55.4881C49.9035 55.6073 49.7162 55.6583 49.5289 55.6583Z" fill="#00DAD0"/>
		<path d="M55.5221 58.3144C55.1986 58.3144 54.8921 58.1271 54.7389 57.8036C54.5516 57.378 54.7389 56.8672 55.1646 56.6799C55.7094 56.4245 56.3394 56.3905 56.9182 56.5607C57.3609 56.6969 57.6333 57.1737 57.4971 57.6163C57.3609 58.059 56.9012 58.3144 56.4415 58.1952C56.2542 58.1271 56.0499 58.1441 55.8626 58.2293C55.7434 58.2804 55.6243 58.2974 55.5221 58.2974V58.3144Z" fill="#00DAD0"/>
		<path d="M22.2191 59.7616C21.9807 59.7616 21.7253 59.6595 21.5721 59.4552C21.0784 58.8763 20.857 58.1101 20.9421 57.3439C20.9932 56.8842 21.4018 56.5267 21.8786 56.5948C22.3383 56.6459 22.6788 57.0715 22.6277 57.5312C22.5937 57.8207 22.6958 58.1271 22.8831 58.3655C23.1896 58.723 23.1385 59.2679 22.7639 59.5573C22.6107 59.6935 22.4064 59.7616 22.2191 59.7616Z" fill="#00DAD0"/>
		<path d="M33.4393 62.1113C32.9455 62.1113 32.4518 61.8218 32.1793 61.3281C31.975 60.9705 31.941 60.613 31.9069 60.3405C31.8559 59.8808 32.1964 59.4552 32.6561 59.4041C33.1158 59.353 33.5414 59.6765 33.5925 60.1533C33.5925 60.2384 33.6095 60.3405 33.6266 60.4257C33.9841 60.4938 34.2736 60.7662 34.3246 61.1578C34.3927 61.6175 34.0692 62.0602 33.5925 62.1113C33.5414 62.1113 33.4733 62.1113 33.4223 62.1113H33.4393Z" fill="#00DAD0"/>
	</g>
	<defs>
		<clipPath id="clip0_27_381">
			<rect width="75" height="75" fill="white"/>
		</clipPath>
	</defs>
</svg>
