<svg width="166" height="166" viewBox="0 80 166 166" fill="none" xmlns="http://www.w3.org/2000/svg">
	<g clip-path="url(#clip0_27_333)">
		<path d="M18.3827 107.612H13.8287V97.2205H4.55403V107.612H0V84.1592H4.55403V93.461H13.8195V84.1592H18.3735V107.612H18.3827Z" fill="#ED7951"/>
		<path d="M26.6115 87.6786H22.1963V83.2725H26.6115V87.6786ZM26.5559 107.603H22.2611V90.6067H26.5559V107.603Z" fill="#ED7951"/>
		<path d="M42.4303 102.855C42.4303 103.696 42.2359 104.444 41.8379 105.1C41.4491 105.756 40.9308 106.301 40.3014 106.744C39.6719 107.187 38.9685 107.52 38.1817 107.742C37.3949 107.963 36.6174 108.083 35.8491 108.083C34.5533 108.083 33.3592 107.843 32.267 107.363C31.1748 106.883 30.2214 106.116 29.3976 105.063L31.9523 102.476C32.4614 103.123 33.0538 103.622 33.7202 103.991C34.3867 104.352 35.0994 104.536 35.8677 104.536C36.5341 104.536 37.0895 104.416 37.5245 104.167C37.9688 103.927 38.1817 103.557 38.1817 103.068C38.1817 102.578 37.867 102.135 37.2376 101.793C36.6082 101.451 35.7288 101.109 34.5903 100.777C33.9239 100.583 33.2759 100.333 32.6465 100.029C32.0171 99.7238 31.4617 99.3543 30.9711 98.9109C30.4806 98.4675 30.0918 97.9687 29.7956 97.396C29.4994 96.8326 29.3513 96.1767 29.3513 95.4285C29.3513 94.6064 29.5457 93.8674 29.9252 93.2116C30.3047 92.5558 30.8138 92.0108 31.4247 91.5674C32.0356 91.124 32.7483 90.7915 33.5351 90.5513C34.3219 90.3204 35.1179 90.2003 35.9232 90.2003C38.5149 90.2003 40.6346 91.1795 42.2914 93.1377L39.7645 95.6872C39.2739 95.0775 38.7186 94.5972 38.0891 94.2462C37.4597 93.8952 36.7748 93.7197 36.0343 93.7197C35.7751 93.7197 35.5067 93.7566 35.229 93.8213C34.942 93.8952 34.6829 93.9875 34.433 94.1168C34.183 94.2462 33.9887 94.4124 33.8313 94.6157C33.6739 94.8189 33.5999 95.0498 33.5999 95.3084C33.5999 95.7611 33.8961 96.149 34.4977 96.4815C35.0994 96.8141 35.951 97.1466 37.071 97.4792C37.7929 97.6916 38.4872 97.9687 39.1258 98.3013C39.7645 98.6338 40.3384 99.0217 40.829 99.4559C41.3195 99.8993 41.7083 100.398 41.986 100.952C42.2729 101.507 42.4118 102.144 42.4118 102.846L42.4303 102.855Z" fill="#ED7951"/>
		<path d="M54.9908 107.224C54.5558 107.501 54.056 107.705 53.4913 107.843C52.9267 107.982 52.3528 108.046 51.7882 108.046C50.7885 108.046 49.9462 107.926 49.2613 107.677C48.5763 107.437 48.0302 107.058 47.6137 106.55C47.1971 106.042 46.9009 105.395 46.7158 104.61C46.5307 103.825 46.4381 102.911 46.4381 101.848V94.4217H44.2074V92.5096C45.5773 91.9461 46.688 91.1055 47.5489 89.9879C48.4004 88.8702 48.9836 87.4199 49.2983 85.6464H50.6775V90.6067H54.9723V94.4217H50.6775V102.144C50.6775 102.578 50.733 102.929 50.8348 103.197C50.9459 103.474 51.0847 103.686 51.2606 103.844C51.4365 104.001 51.6401 104.111 51.8622 104.167C52.0844 104.222 52.3251 104.25 52.5842 104.25C52.9174 104.25 53.3155 104.195 53.7875 104.074C54.2596 103.954 54.6576 103.76 54.9908 103.483V107.215V107.224Z" fill="#ED7951"/>
		<path d="M74.0215 99.1326C74.0215 100.407 73.7901 101.58 73.318 102.67C72.8459 103.76 72.198 104.693 71.3742 105.488C70.5504 106.282 69.5878 106.91 68.477 107.363C67.3663 107.825 66.1908 108.056 64.9319 108.056C63.6731 108.056 62.4975 107.825 61.4053 107.363C60.3038 106.901 59.3505 106.273 58.5267 105.469C57.7029 104.666 57.0549 103.723 56.5829 102.633C56.1108 101.553 55.8794 100.38 55.8794 99.1233C55.8794 97.8671 56.1201 96.7309 56.6014 95.641C57.0827 94.5602 57.7306 93.6088 58.5544 92.7959C59.3782 91.9831 60.3409 91.3457 61.4331 90.8839C62.5346 90.422 63.7009 90.1911 64.9319 90.1911C66.163 90.1911 67.3663 90.422 68.477 90.8839C69.5878 91.3457 70.5504 91.9738 71.3742 92.759C72.198 93.5441 72.8459 94.4956 73.318 95.5948C73.7901 96.694 74.0215 97.8671 74.0215 99.1141V99.1326ZM69.7821 99.1326C69.7821 98.4121 69.6526 97.7378 69.4027 97.1097C69.1527 96.4815 68.801 95.9365 68.366 95.4655C67.9217 94.9944 67.4126 94.6249 66.8294 94.3662C66.2463 94.0984 65.6169 93.969 64.9504 93.969C64.284 93.969 63.6638 94.0984 63.0714 94.3662C62.4883 94.6341 61.97 94.9944 61.5349 95.4655C61.0906 95.9365 60.7481 96.4815 60.4982 97.1097C60.2483 97.7378 60.1187 98.4121 60.1187 99.1326C60.1187 99.8531 60.2483 100.527 60.4982 101.156C60.7481 101.784 61.0999 102.329 61.5349 102.8C61.9792 103.271 62.4883 103.64 63.0714 103.899C63.6546 104.167 64.284 104.296 64.9504 104.296C65.6169 104.296 66.237 104.167 66.8294 103.899C67.4126 103.631 67.9309 103.271 68.366 102.8C68.8103 102.329 69.1527 101.784 69.4027 101.156C69.6526 100.527 69.7821 99.8531 69.7821 99.1326Z" fill="#ED7951"/>
		<path d="M95.2088 84.1315L86.2951 107.612H82.1206L73.0033 84.1315H78.0572L84.1755 100.629L90.2012 84.1315H95.1996H95.2088Z" fill="#ED7951"/>
		<path d="M111.398 99.0956C111.398 99.3728 111.379 99.6499 111.352 99.9454C111.324 100.241 111.287 100.546 111.25 100.851H97.6618C97.8192 101.34 98.0413 101.802 98.319 102.245C98.6059 102.689 98.9484 103.068 99.3649 103.391C99.7815 103.714 100.244 103.964 100.763 104.158C101.281 104.342 101.855 104.435 102.484 104.435C103.253 104.435 104.012 104.305 104.78 104.037C105.548 103.77 106.177 103.419 106.696 102.966L109.371 105.636C108.195 106.513 107.038 107.141 105.918 107.501C104.789 107.862 103.604 108.046 102.345 108.046C101.087 108.046 99.8833 107.815 98.7726 107.344C97.6618 106.873 96.7084 106.236 95.8939 105.432C95.0793 104.629 94.4407 103.686 93.9686 102.597C93.4965 101.507 93.2651 100.352 93.2651 99.1233C93.2651 97.8948 93.4965 96.7309 93.9686 95.641C94.4407 94.5602 95.0886 93.6088 95.9124 92.8052C96.7362 92.0015 97.6988 91.3642 98.7911 90.8931C99.8925 90.422 101.068 90.1911 102.318 90.1911C103.567 90.1911 104.659 90.4128 105.761 90.8469C106.862 91.2903 107.825 91.8999 108.677 92.6851C109.519 93.4702 110.185 94.4032 110.676 95.4839C111.167 96.5647 111.407 97.7655 111.407 99.0772L111.398 99.0956ZM106.955 97.4514C106.622 96.3799 106.029 95.5116 105.178 94.8558C104.326 94.2 103.364 93.8767 102.281 93.8767C101.198 93.8767 100.272 94.2092 99.4297 94.8558C98.5874 95.5116 97.995 96.3799 97.6618 97.4514H106.955Z" fill="#ED7951"/>
		<path d="M123.699 107.224C123.264 107.501 122.764 107.705 122.2 107.843C121.635 107.982 121.061 108.046 120.497 108.046C119.497 108.046 118.655 107.926 117.97 107.677C117.285 107.437 116.739 107.058 116.322 106.55C115.906 106.042 115.609 105.395 115.424 104.61C115.239 103.825 115.147 102.911 115.147 101.848V94.4217H112.916V92.5096C114.286 91.9461 115.397 91.1055 116.257 89.9879C117.109 88.8702 117.692 87.4199 118.007 85.6464H119.386V90.6067H123.681V94.4217H119.386V102.144C119.386 102.578 119.441 102.929 119.543 103.197C119.654 103.474 119.793 103.686 119.969 103.844C120.145 104.001 120.349 104.111 120.571 104.167C120.793 104.222 121.034 104.25 121.293 104.25C121.626 104.25 122.024 104.195 122.496 104.074C122.968 103.954 123.366 103.76 123.699 103.483V107.215V107.224Z" fill="#ED7951"/>
		<path d="M134.372 109.155C134.113 109.155 133.853 109.026 133.705 108.785C131.586 105.414 129.531 101.728 128.874 97.6454C128.494 95.2715 128.762 93.461 129.716 92.0939C130.206 91.3919 130.845 90.8561 131.456 90.3758C132.548 89.5168 133.696 88.6947 134.862 87.9465C135.927 87.2629 136.815 87.1705 137.51 87.6693C137.685 87.7894 137.796 87.9834 137.824 88.1959C137.945 89.018 137.88 89.8678 137.648 90.6714L141.777 91.9369C141.971 92.0015 142.221 92.0662 142.369 92.0477C142.499 92.0293 142.693 91.8907 142.878 91.7706C143.961 91.0317 145.072 90.5144 146.257 90.1911C146.664 90.0802 147.016 90.1357 147.284 90.3481C147.478 90.4959 147.775 90.8561 147.627 91.5305C147.34 92.8421 146.905 94.1076 146.488 95.3361C146.247 96.0289 146.016 96.7309 145.803 97.433C145.118 99.733 144.933 101.525 145.248 103.086C145.627 104.989 146.849 106.55 148.367 107.067C149.959 107.603 151.912 106.929 152.819 105.515C152.977 105.275 153.254 105.137 153.541 105.155C153.828 105.174 154.078 105.349 154.198 105.617C154.633 106.559 155.615 107.27 156.651 107.381C157.688 107.492 158.799 107.012 159.419 106.181C159.891 105.552 160.113 104.721 160.261 104.074C160.65 102.338 160.724 100.537 160.493 98.7816C159.437 97.7747 158.595 96.5554 157.873 95.3823C157.66 95.0313 157.327 94.5048 157.299 93.8674C157.262 93.11 157.744 92.2509 158.614 92.1309C159.067 92.057 159.919 92.1493 160.557 93.498C161.233 94.9297 161.705 96.4446 161.964 97.9964C162.52 98.4583 163.121 98.8462 163.797 99.0864C164.112 99.2065 164.352 99.1973 164.417 99.1603C164.417 99.1234 164.417 98.9017 164.417 98.8093L164.352 95.3639C164.334 94.5879 164.325 93.7751 164.13 93.0546C163.89 92.1678 163.344 91.2626 162.455 90.3112C162.168 89.9971 161.853 89.7015 161.529 89.6276C161.233 89.563 160.854 89.6646 160.493 89.7846C159.187 90.2003 157.938 90.7545 156.762 91.4289C156.383 91.6505 155.902 91.5212 155.689 91.1425C155.467 90.7638 155.596 90.2834 155.976 90.071C157.253 89.332 158.614 88.7316 160.021 88.2882C160.567 88.1127 161.205 87.9465 161.881 88.0943C162.631 88.2605 163.177 88.7686 163.621 89.2397C164.686 90.3851 165.352 91.4935 165.658 92.6389C165.907 93.5441 165.926 94.4494 165.935 95.3269L166 98.7723C166 99.0864 166.019 99.6037 165.713 100.056C165.25 100.749 164.306 100.934 163.269 100.555C162.89 100.417 162.529 100.25 162.186 100.056C162.251 101.516 162.122 102.984 161.807 104.416C161.631 105.22 161.344 106.254 160.687 107.123C159.724 108.407 158.077 109.127 156.494 108.952C155.3 108.822 154.18 108.203 153.412 107.28C151.977 108.665 149.774 109.21 147.876 108.564C145.831 107.871 144.202 105.839 143.72 103.4C143.248 101.008 143.832 98.5968 144.313 96.9896C144.526 96.2691 144.776 95.5486 145.016 94.8373C145.34 93.8952 145.664 92.9345 145.923 91.9646C145.183 92.2325 144.489 92.5927 143.85 93.0269C143.489 93.2763 143.119 93.5257 142.637 93.6088C142.128 93.6919 141.666 93.5534 141.323 93.4518L136.399 91.9461C136.177 91.8815 136.001 91.7244 135.908 91.512C135.816 91.2995 135.816 91.0686 135.908 90.8654C136.177 90.2834 136.316 89.6276 136.306 88.981C136.167 89.0272 135.973 89.1103 135.714 89.2858C134.585 90.0156 133.483 90.8007 132.428 91.6321C131.91 92.0385 131.373 92.4819 131.002 93.0084C130.299 94.0245 130.105 95.4655 130.429 97.4145C131.04 101.22 133.002 104.73 135.038 107.972C135.27 108.342 135.158 108.822 134.788 109.053C134.659 109.136 134.511 109.173 134.372 109.173V109.155ZM158.891 93.7196C158.891 93.7196 158.891 93.7474 158.891 93.7658C158.901 93.9783 159.049 94.2369 159.234 94.5325C159.336 94.6988 159.437 94.865 159.548 95.0313C159.428 94.7265 159.299 94.4309 159.16 94.1446C159.058 93.9321 158.965 93.8028 158.901 93.7289L158.891 93.7196Z" fill="#173F5F"/>
		<path d="M135.584 99.5113C135.445 99.5113 135.279 99.4836 135.121 99.4005C134.862 99.2712 134.446 98.9386 134.529 98.1165L134.705 96.3522C134.705 96.2968 134.723 96.2322 134.742 96.1767C134.742 96.1305 134.76 96.0844 134.77 96.0474C134.89 95.6317 135.334 95.4008 135.751 95.5209C135.769 95.5209 135.797 95.5301 135.816 95.5394C135.825 95.5394 135.834 95.5394 135.843 95.5394C135.936 95.5578 136.019 95.5855 136.093 95.6225C136.732 95.8349 137.352 96.1121 137.935 96.4446C138.472 96.7494 138.583 97.1466 138.583 97.4237C138.583 97.784 138.398 98.098 138.046 98.3567C137.445 98.7908 136.778 99.1326 136.084 99.3912C136.001 99.4189 135.816 99.4928 135.575 99.4928L135.584 99.5113ZM136.195 97.3591L136.158 97.6824C136.278 97.627 136.39 97.5623 136.501 97.4976C136.399 97.4514 136.288 97.4053 136.186 97.3591H136.195Z" fill="#173F5F"/>
		<path d="M153.625 106.568C153.56 106.568 153.486 106.568 153.421 106.559C152.458 106.439 151.57 105.571 151.153 104.804C150.764 104.102 150.709 103.4 150.987 102.818C151.486 101.784 152.754 101.627 153.171 101.58C153.662 101.525 154.161 101.488 154.652 101.479C155.106 101.47 155.596 101.479 156.077 101.673C156.716 101.922 157.188 102.458 157.299 103.058C157.373 103.428 157.308 103.834 157.133 104.222C156.698 105.164 154.939 106.568 153.634 106.568H153.625ZM154.828 103.04C154.772 103.04 154.726 103.04 154.68 103.04C154.235 103.04 153.8 103.077 153.365 103.132C152.643 103.225 152.458 103.4 152.403 103.502C152.366 103.585 152.384 103.779 152.532 104.047C152.829 104.582 153.365 104.961 153.615 104.998C154.087 105.035 155.439 104.111 155.698 103.557C155.744 103.456 155.753 103.372 155.753 103.345C155.744 103.289 155.652 103.188 155.504 103.132C155.318 103.058 155.069 103.04 154.837 103.04H154.828Z" fill="#173F5F"/>
		<path d="M135.223 94.8743C134.705 94.8743 134.196 94.5879 133.946 94.1076C133.761 93.7381 133.89 93.2855 134.251 93.0731L134.575 92.8791C134.751 92.7128 134.992 92.6204 135.251 92.6666C135.418 92.6943 135.714 92.7405 135.982 92.9437C136.427 93.2855 136.547 93.8952 136.26 94.3478C136.14 94.5325 135.982 94.6618 135.769 94.7542C135.594 94.8281 135.408 94.865 135.223 94.865V94.8743Z" fill="#173F5F"/>
		<path d="M139.842 96.5832C139.787 96.5832 139.731 96.5832 139.666 96.5832C139.314 96.5462 139.028 96.4169 138.805 96.2045C138.426 95.8257 138.361 95.2438 138.639 94.8281C138.759 94.6526 138.944 94.5325 139.157 94.4956C139.277 94.4771 139.398 94.4679 139.518 94.4679C139.731 94.3847 139.981 94.3755 140.212 94.4494C140.416 94.5141 140.712 94.6711 140.934 95.0683C140.971 95.1329 141.064 95.2992 141.073 95.5301C141.073 95.798 140.971 96.0659 140.749 96.2599C140.509 96.4816 140.185 96.6016 139.824 96.6016L139.842 96.5832Z" fill="#173F5F"/>
		<path d="M148.959 99.2527C148.876 99.2527 148.793 99.2434 148.709 99.2157C148.293 99.0772 148.071 98.6338 148.21 98.2274C148.441 97.5438 149.07 97.045 149.792 96.9803C150.514 96.9157 151.227 97.3129 151.56 97.9502C151.764 98.3382 151.616 98.8093 151.236 99.0125C150.857 99.2157 150.376 99.0679 150.172 98.6892C150.126 98.6061 150.015 98.5599 149.922 98.5507C149.829 98.5507 149.728 98.643 149.7 98.7262C149.589 99.0587 149.283 99.2619 148.95 99.2619L148.959 99.2527Z" fill="#173F5F"/>
		<path d="M157.188 99.1234C156.901 99.1234 156.624 98.9663 156.485 98.6892C156.401 98.5322 156.216 98.4029 156.031 98.4029C155.846 98.4029 155.652 98.5045 155.559 98.6615C155.337 99.031 154.856 99.1603 154.485 98.9386C154.106 98.7169 153.986 98.2366 154.208 97.8671C154.596 97.2113 155.328 96.8141 156.087 96.8326C156.846 96.8603 157.549 97.3129 157.892 97.9872C158.086 98.3752 157.929 98.8462 157.54 99.0402C157.429 99.0956 157.308 99.1234 157.188 99.1234Z" fill="#173F5F"/>
	</g>
	<defs>
		<clipPath id="clip0_27_333">
			<rect width="166" height="166" fill="white"/>
		</clipPath>
	</defs>
</svg>
