<svg width="166" height="166" viewBox="0 0 166 166" fill="none" xmlns="http://www.w3.org/2000/svg">
	<g clip-path="url(#clip0_27_333)">
		<path d="M52.4177 62.877C50.5757 62.877 48.7523 62.4151 47.0954 61.5191C41.6898 58.5817 39.6905 51.8017 42.6339 46.4164C44.0594 43.8023 46.4197 41.8995 49.2799 41.0589C52.14 40.2184 55.1575 40.5417 57.777 41.9642C58.4527 42.3336 58.7026 43.1742 58.3324 43.8485C57.9621 44.5228 57.1198 44.7722 56.4534 44.4028C54.4911 43.3313 52.2233 43.0911 50.0759 43.7285C47.9285 44.3566 46.1513 45.7883 45.0868 47.7466C42.8746 51.7924 44.3834 56.8913 48.4376 59.0898C50.3999 60.1613 52.6676 60.4014 54.815 59.7641C56.9625 59.1267 58.7397 57.7042 59.8041 55.7367C60.8871 53.7599 61.1185 51.4784 60.4706 49.3169C60.2484 48.5872 60.6649 47.8113 61.3962 47.5896C62.1274 47.3679 62.9049 47.7835 63.1271 48.5133C63.9972 51.386 63.6824 54.425 62.2477 57.0576C60.8223 59.6717 58.462 61.5745 55.6018 62.4151C54.5559 62.7199 53.4914 62.877 52.4362 62.877H52.4177Z" fill="#173F5F"/>
		<path d="M93.2095 81.6283C93.0799 81.6283 92.9596 81.6283 92.83 81.6098C91.8303 81.5082 90.9232 81.0279 90.2845 80.252L83.8885 72.4743C83.7404 72.2896 83.5183 72.1787 83.2869 72.151C83.0462 72.1233 82.8148 72.1972 82.6297 72.345L79.3993 74.996C78.3163 75.8643 76.715 75.7073 75.8172 74.6543L63.6638 59.8657C63.2658 59.3853 63.2473 58.7018 63.599 58.1938C64.3303 57.1407 64.8856 55.9768 65.2559 54.7206C65.5984 53.6214 65.765 52.4483 65.765 51.2105C65.765 48.5872 64.9412 46.0839 63.3954 43.9779C61.0906 40.7726 57.3604 38.8605 53.3895 38.8605C51.6956 38.8605 50.0665 39.193 48.53 39.8581C47.8265 40.1629 47.012 39.8396 46.7065 39.1376C46.4011 38.4356 46.725 37.6227 47.4285 37.3179C49.3168 36.505 51.3161 36.0894 53.3895 36.0894C58.249 36.0894 62.8308 38.4263 65.6446 42.3521C67.5422 44.9293 68.5418 47.996 68.5418 51.2105C68.5418 52.7161 68.3289 54.1664 67.9124 55.515C67.5607 56.6973 67.0701 57.8335 66.4499 58.8865L77.8165 72.7145L80.871 70.2112C81.63 69.5923 82.5834 69.2968 83.5646 69.3984C84.5457 69.4907 85.4251 69.9618 86.0452 70.7193L92.4412 78.5061C92.6078 78.7094 92.8485 78.8387 93.1077 78.8664C93.3668 78.8941 93.626 78.811 93.8297 78.6447L98.7169 74.6358C99.1427 74.294 99.1982 73.6659 98.8558 73.2502L91.7192 64.5766C91.2935 64.0593 91.0991 63.4127 91.1639 62.7476C91.2287 62.0826 91.5526 61.4822 92.071 61.0665L96.0419 57.8243L54.3614 7.13105C53.408 5.96717 52.0473 5.25591 50.5478 5.10812C49.0669 4.96956 47.6136 5.41294 46.4751 6.35513L45.4014 7.21418C44.809 7.69451 43.9389 7.60214 43.4576 7.01096L40.6623 3.62095C40.2642 3.13138 39.7089 2.83579 39.0887 2.77113C38.4686 2.70647 37.8576 2.89122 37.3763 3.28841L35.7102 4.6555C34.7106 5.4776 34.5625 6.95554 35.3862 7.95315L38.1724 11.3616C38.4038 11.648 38.5148 12.0175 38.4778 12.387C38.4408 12.7564 38.2557 13.089 37.9687 13.3199L36.9135 14.1697C34.5439 16.1187 34.1922 19.6566 36.1545 22.0582L45.3366 33.2259C45.8272 33.817 45.7346 34.6946 45.1422 35.1749C44.5498 35.6645 43.6705 35.5721 43.1892 34.9809L34.0071 23.8133C31.0821 20.2477 31.5912 14.9733 35.1363 12.0452L33.2296 9.71743C31.4431 7.53748 31.7671 4.31373 33.9423 2.53097L35.6084 1.16388C36.6636 0.295589 37.9965 -0.101606 39.3664 0.0369501C40.7271 0.175507 41.9489 0.831341 42.8097 1.89361L44.7257 4.21212C46.4196 2.81732 48.5855 2.15225 50.807 2.3647C53.047 2.57715 55.0648 3.64866 56.4996 5.38523L98.2911 56.217C99.1797 57.2978 99.0316 58.9142 97.9671 59.8102L94.024 63.0248L100.985 71.4859C102.299 73.084 102.068 75.4579 100.466 76.7788L95.5791 80.7877C94.9034 81.3419 94.0611 81.6468 93.191 81.6468L93.2095 81.6283Z" fill="#173F5F"/>
		<path d="M113.768 166H22.076C20.6783 166 19.5398 164.855 19.5398 163.451V161.945C19.5398 155.433 24.8528 150.131 31.3784 150.131H48.2894C49.0577 150.131 49.6779 150.75 49.6779 151.516C49.6779 152.283 49.0577 152.902 48.2894 152.902H31.3784C26.3801 152.902 22.3166 156.957 22.3166 161.945V163.229H113.545V161.945C113.545 156.957 109.473 152.902 104.465 152.902H87.5356C86.7673 152.902 86.1471 152.283 86.1471 151.516C86.1471 150.75 86.7673 150.131 87.5356 150.131H104.465C111 150.131 116.322 155.433 116.322 161.945V163.451C116.322 164.855 115.174 166 113.768 166Z" fill="#173F5F"/>
		<path d="M28.3701 81.0186C28.1665 81.0186 27.9536 80.9725 27.7592 80.8801C27.0743 80.5383 26.7873 79.707 27.1298 79.0234C29.8141 73.592 33.498 68.8164 38.0891 64.8352C38.663 64.3364 39.5423 64.3918 40.0514 64.9738C40.5605 65.5557 40.4957 66.424 39.9126 66.9321C35.5992 70.6731 32.1374 75.1531 29.6197 80.2612C29.379 80.7508 28.8885 81.0371 28.3701 81.0371V81.0186Z" fill="#173F5F"/>
		<path d="M67.9217 144.413C49.0484 144.413 31.9245 132.562 25.3249 114.928C25.0564 114.208 25.4174 113.413 26.1394 113.145C26.8614 112.877 27.6574 113.238 27.9258 113.958C34.1275 130.52 50.1962 141.642 67.9217 141.642C75.4192 141.642 82.7779 139.683 89.2109 135.989C89.8773 135.61 90.7289 135.832 91.1084 136.497C91.4879 137.162 91.2658 138.002 90.5993 138.39C83.7498 142.335 75.9005 144.422 67.9217 144.422V144.413Z" fill="#173F5F"/>
		<path d="M16.0595 79.162C15.8836 79.162 15.6985 79.125 15.5319 79.0604C14.8191 78.7648 14.4859 77.9519 14.7821 77.2499C19.1325 66.7935 26.4819 57.8427 36.025 51.3491C36.6544 50.9149 37.5245 51.0812 37.9503 51.7185C38.3853 52.3467 38.2187 53.2149 37.58 53.6399C28.4812 59.8195 21.4836 68.3546 17.3368 78.3122C17.1147 78.8479 16.5963 79.162 16.0502 79.162H16.0595Z" fill="#173F5F"/>
		<path d="M48.2894 152.902C48.132 152.902 47.9654 152.874 47.8081 152.819C30.7675 146.464 17.6237 132.266 12.6347 114.826C12.4218 114.087 12.8476 113.321 13.588 113.118C14.3285 112.905 15.0968 113.339 15.3004 114.069C20.0396 130.659 32.5539 144.173 48.7707 150.223C49.4927 150.491 49.8537 151.285 49.5853 152.006C49.3724 152.56 48.8448 152.911 48.2801 152.911L48.2894 152.902Z" fill="#173F5F"/>
		<path d="M87.5355 152.902C86.9709 152.902 86.4433 152.56 86.2304 151.997C85.962 151.276 86.3322 150.482 87.045 150.214C102.854 144.33 112.129 136.044 117.109 123.334C117.711 121.791 119.155 120.794 120.793 120.794H135.066C135.121 120.794 135.158 120.747 135.158 120.701V114.669C135.158 114.614 135.112 114.577 135.066 114.577H76.3263C76.2708 114.577 76.2338 114.623 76.2338 114.669V120.701C76.2338 120.757 76.28 120.794 76.3263 120.794H98.9114C99.6796 120.794 100.3 121.412 100.3 122.179C100.3 122.946 99.6796 123.565 98.9114 123.565H76.3263C74.7435 123.565 73.4569 122.281 73.4569 120.701V114.669C73.4569 113.09 74.7435 111.806 76.3263 111.806H135.066C136.649 111.806 137.935 113.09 137.935 114.669V120.701C137.935 122.281 136.649 123.565 135.066 123.565H120.793C120.312 123.565 119.886 123.87 119.701 124.341C112.842 141.854 98.3282 148.976 88.0168 152.809C87.8595 152.865 87.6929 152.893 87.5355 152.893V152.902Z" fill="#173F5F"/>
		<path d="M60.1466 23.9518C59.7486 23.9518 59.3506 23.7855 59.0821 23.453L51.5013 14.3637C51.0108 13.7725 51.0941 12.9042 51.6772 12.4147C52.2604 11.9251 53.1397 12.0082 53.6303 12.5902L61.2111 21.6795C61.7016 22.2707 61.6183 23.1389 61.0352 23.6285C60.776 23.841 60.4613 23.9518 60.1466 23.9518Z" fill="#173F5F"/>
		<path d="M18.3827 107.612H13.8287V97.2205H4.55403V107.612H0V84.1592H4.55403V93.461H13.8195V84.1592H18.3735V107.612H18.3827Z" fill="#ED7951"/>
		<path d="M26.6115 87.6786H22.1963V83.2725H26.6115V87.6786ZM26.5559 107.603H22.2611V90.6067H26.5559V107.603Z" fill="#ED7951"/>
		<path d="M42.4303 102.855C42.4303 103.696 42.2359 104.444 41.8379 105.1C41.4491 105.756 40.9308 106.301 40.3014 106.744C39.6719 107.187 38.9685 107.52 38.1817 107.742C37.3949 107.963 36.6174 108.083 35.8491 108.083C34.5533 108.083 33.3592 107.843 32.267 107.363C31.1748 106.883 30.2214 106.116 29.3976 105.063L31.9523 102.476C32.4614 103.123 33.0538 103.622 33.7202 103.991C34.3867 104.352 35.0994 104.536 35.8677 104.536C36.5341 104.536 37.0895 104.416 37.5245 104.167C37.9688 103.927 38.1817 103.557 38.1817 103.068C38.1817 102.578 37.867 102.135 37.2376 101.793C36.6082 101.451 35.7288 101.109 34.5903 100.777C33.9239 100.583 33.2759 100.333 32.6465 100.029C32.0171 99.7238 31.4617 99.3543 30.9711 98.9109C30.4806 98.4675 30.0918 97.9687 29.7956 97.396C29.4994 96.8326 29.3513 96.1767 29.3513 95.4285C29.3513 94.6064 29.5457 93.8674 29.9252 93.2116C30.3047 92.5558 30.8138 92.0108 31.4247 91.5674C32.0356 91.124 32.7483 90.7915 33.5351 90.5513C34.3219 90.3204 35.1179 90.2003 35.9232 90.2003C38.5149 90.2003 40.6346 91.1795 42.2914 93.1377L39.7645 95.6872C39.2739 95.0775 38.7186 94.5972 38.0891 94.2462C37.4597 93.8952 36.7748 93.7197 36.0343 93.7197C35.7751 93.7197 35.5067 93.7566 35.229 93.8213C34.942 93.8952 34.6829 93.9875 34.433 94.1168C34.183 94.2462 33.9887 94.4124 33.8313 94.6157C33.6739 94.8189 33.5999 95.0498 33.5999 95.3084C33.5999 95.7611 33.8961 96.149 34.4977 96.4815C35.0994 96.8141 35.951 97.1466 37.071 97.4792C37.7929 97.6916 38.4872 97.9687 39.1258 98.3013C39.7645 98.6338 40.3384 99.0217 40.829 99.4559C41.3195 99.8993 41.7083 100.398 41.986 100.952C42.2729 101.507 42.4118 102.144 42.4118 102.846L42.4303 102.855Z" fill="#ED7951"/>
		<path d="M54.9908 107.224C54.5558 107.501 54.056 107.705 53.4913 107.843C52.9267 107.982 52.3528 108.046 51.7882 108.046C50.7885 108.046 49.9462 107.926 49.2613 107.677C48.5763 107.437 48.0302 107.058 47.6137 106.55C47.1971 106.042 46.9009 105.395 46.7158 104.61C46.5307 103.825 46.4381 102.911 46.4381 101.848V94.4217H44.2074V92.5096C45.5773 91.9461 46.688 91.1055 47.5489 89.9879C48.4004 88.8702 48.9836 87.4199 49.2983 85.6464H50.6775V90.6067H54.9723V94.4217H50.6775V102.144C50.6775 102.578 50.733 102.929 50.8348 103.197C50.9459 103.474 51.0847 103.686 51.2606 103.844C51.4365 104.001 51.6401 104.111 51.8622 104.167C52.0844 104.222 52.3251 104.25 52.5842 104.25C52.9174 104.25 53.3155 104.195 53.7875 104.074C54.2596 103.954 54.6576 103.76 54.9908 103.483V107.215V107.224Z" fill="#ED7951"/>
		<path d="M74.0215 99.1326C74.0215 100.407 73.7901 101.58 73.318 102.67C72.8459 103.76 72.198 104.693 71.3742 105.488C70.5504 106.282 69.5878 106.91 68.477 107.363C67.3663 107.825 66.1908 108.056 64.9319 108.056C63.6731 108.056 62.4975 107.825 61.4053 107.363C60.3038 106.901 59.3505 106.273 58.5267 105.469C57.7029 104.666 57.0549 103.723 56.5829 102.633C56.1108 101.553 55.8794 100.38 55.8794 99.1233C55.8794 97.8671 56.1201 96.7309 56.6014 95.641C57.0827 94.5602 57.7306 93.6088 58.5544 92.7959C59.3782 91.9831 60.3409 91.3457 61.4331 90.8839C62.5346 90.422 63.7009 90.1911 64.9319 90.1911C66.163 90.1911 67.3663 90.422 68.477 90.8839C69.5878 91.3457 70.5504 91.9738 71.3742 92.759C72.198 93.5441 72.8459 94.4956 73.318 95.5948C73.7901 96.694 74.0215 97.8671 74.0215 99.1141V99.1326ZM69.7821 99.1326C69.7821 98.4121 69.6526 97.7378 69.4027 97.1097C69.1527 96.4815 68.801 95.9365 68.366 95.4655C67.9217 94.9944 67.4126 94.6249 66.8294 94.3662C66.2463 94.0984 65.6169 93.969 64.9504 93.969C64.284 93.969 63.6638 94.0984 63.0714 94.3662C62.4883 94.6341 61.97 94.9944 61.5349 95.4655C61.0906 95.9365 60.7481 96.4815 60.4982 97.1097C60.2483 97.7378 60.1187 98.4121 60.1187 99.1326C60.1187 99.8531 60.2483 100.527 60.4982 101.156C60.7481 101.784 61.0999 102.329 61.5349 102.8C61.9792 103.271 62.4883 103.64 63.0714 103.899C63.6546 104.167 64.284 104.296 64.9504 104.296C65.6169 104.296 66.237 104.167 66.8294 103.899C67.4126 103.631 67.9309 103.271 68.366 102.8C68.8103 102.329 69.1527 101.784 69.4027 101.156C69.6526 100.527 69.7821 99.8531 69.7821 99.1326Z" fill="#ED7951"/>
		<path d="M95.2088 84.1315L86.2951 107.612H82.1206L73.0033 84.1315H78.0572L84.1755 100.629L90.2012 84.1315H95.1996H95.2088Z" fill="#ED7951"/>
		<path d="M111.398 99.0956C111.398 99.3728 111.379 99.6499 111.352 99.9454C111.324 100.241 111.287 100.546 111.25 100.851H97.6618C97.8192 101.34 98.0413 101.802 98.319 102.245C98.6059 102.689 98.9484 103.068 99.3649 103.391C99.7815 103.714 100.244 103.964 100.763 104.158C101.281 104.342 101.855 104.435 102.484 104.435C103.253 104.435 104.012 104.305 104.78 104.037C105.548 103.77 106.177 103.419 106.696 102.966L109.371 105.636C108.195 106.513 107.038 107.141 105.918 107.501C104.789 107.862 103.604 108.046 102.345 108.046C101.087 108.046 99.8833 107.815 98.7726 107.344C97.6618 106.873 96.7084 106.236 95.8939 105.432C95.0793 104.629 94.4407 103.686 93.9686 102.597C93.4965 101.507 93.2651 100.352 93.2651 99.1233C93.2651 97.8948 93.4965 96.7309 93.9686 95.641C94.4407 94.5602 95.0886 93.6088 95.9124 92.8052C96.7362 92.0015 97.6988 91.3642 98.7911 90.8931C99.8925 90.422 101.068 90.1911 102.318 90.1911C103.567 90.1911 104.659 90.4128 105.761 90.8469C106.862 91.2903 107.825 91.8999 108.677 92.6851C109.519 93.4702 110.185 94.4032 110.676 95.4839C111.167 96.5647 111.407 97.7655 111.407 99.0772L111.398 99.0956ZM106.955 97.4514C106.622 96.3799 106.029 95.5116 105.178 94.8558C104.326 94.2 103.364 93.8767 102.281 93.8767C101.198 93.8767 100.272 94.2092 99.4297 94.8558C98.5874 95.5116 97.995 96.3799 97.6618 97.4514H106.955Z" fill="#ED7951"/>
		<path d="M123.699 107.224C123.264 107.501 122.764 107.705 122.2 107.843C121.635 107.982 121.061 108.046 120.497 108.046C119.497 108.046 118.655 107.926 117.97 107.677C117.285 107.437 116.739 107.058 116.322 106.55C115.906 106.042 115.609 105.395 115.424 104.61C115.239 103.825 115.147 102.911 115.147 101.848V94.4217H112.916V92.5096C114.286 91.9461 115.397 91.1055 116.257 89.9879C117.109 88.8702 117.692 87.4199 118.007 85.6464H119.386V90.6067H123.681V94.4217H119.386V102.144C119.386 102.578 119.441 102.929 119.543 103.197C119.654 103.474 119.793 103.686 119.969 103.844C120.145 104.001 120.349 104.111 120.571 104.167C120.793 104.222 121.034 104.25 121.293 104.25C121.626 104.25 122.024 104.195 122.496 104.074C122.968 103.954 123.366 103.76 123.699 103.483V107.215V107.224Z" fill="#ED7951"/>
		<path d="M134.372 109.155C134.113 109.155 133.853 109.026 133.705 108.785C131.586 105.414 129.531 101.728 128.874 97.6454C128.494 95.2715 128.762 93.461 129.716 92.0939C130.206 91.3919 130.845 90.8561 131.456 90.3758C132.548 89.5168 133.696 88.6947 134.862 87.9465C135.927 87.2629 136.815 87.1705 137.51 87.6693C137.685 87.7894 137.796 87.9834 137.824 88.1959C137.945 89.018 137.88 89.8678 137.648 90.6714L141.777 91.9369C141.971 92.0015 142.221 92.0662 142.369 92.0477C142.499 92.0293 142.693 91.8907 142.878 91.7706C143.961 91.0317 145.072 90.5144 146.257 90.1911C146.664 90.0802 147.016 90.1357 147.284 90.3481C147.478 90.4959 147.775 90.8561 147.627 91.5305C147.34 92.8421 146.905 94.1076 146.488 95.3361C146.247 96.0289 146.016 96.7309 145.803 97.433C145.118 99.733 144.933 101.525 145.248 103.086C145.627 104.989 146.849 106.55 148.367 107.067C149.959 107.603 151.912 106.929 152.819 105.515C152.977 105.275 153.254 105.137 153.541 105.155C153.828 105.174 154.078 105.349 154.198 105.617C154.633 106.559 155.615 107.27 156.651 107.381C157.688 107.492 158.799 107.012 159.419 106.181C159.891 105.552 160.113 104.721 160.261 104.074C160.65 102.338 160.724 100.537 160.493 98.7816C159.437 97.7747 158.595 96.5554 157.873 95.3823C157.66 95.0313 157.327 94.5048 157.299 93.8674C157.262 93.11 157.744 92.2509 158.614 92.1309C159.067 92.057 159.919 92.1493 160.557 93.498C161.233 94.9297 161.705 96.4446 161.964 97.9964C162.52 98.4583 163.121 98.8462 163.797 99.0864C164.112 99.2065 164.352 99.1973 164.417 99.1603C164.417 99.1234 164.417 98.9017 164.417 98.8093L164.352 95.3639C164.334 94.5879 164.325 93.7751 164.13 93.0546C163.89 92.1678 163.344 91.2626 162.455 90.3112C162.168 89.9971 161.853 89.7015 161.529 89.6276C161.233 89.563 160.854 89.6646 160.493 89.7846C159.187 90.2003 157.938 90.7545 156.762 91.4289C156.383 91.6505 155.902 91.5212 155.689 91.1425C155.467 90.7638 155.596 90.2834 155.976 90.071C157.253 89.332 158.614 88.7316 160.021 88.2882C160.567 88.1127 161.205 87.9465 161.881 88.0943C162.631 88.2605 163.177 88.7686 163.621 89.2397C164.686 90.3851 165.352 91.4935 165.658 92.6389C165.907 93.5441 165.926 94.4494 165.935 95.3269L166 98.7723C166 99.0864 166.019 99.6037 165.713 100.056C165.25 100.749 164.306 100.934 163.269 100.555C162.89 100.417 162.529 100.25 162.186 100.056C162.251 101.516 162.122 102.984 161.807 104.416C161.631 105.22 161.344 106.254 160.687 107.123C159.724 108.407 158.077 109.127 156.494 108.952C155.3 108.822 154.18 108.203 153.412 107.28C151.977 108.665 149.774 109.21 147.876 108.564C145.831 107.871 144.202 105.839 143.72 103.4C143.248 101.008 143.832 98.5968 144.313 96.9896C144.526 96.2691 144.776 95.5486 145.016 94.8373C145.34 93.8952 145.664 92.9345 145.923 91.9646C145.183 92.2325 144.489 92.5927 143.85 93.0269C143.489 93.2763 143.119 93.5257 142.637 93.6088C142.128 93.6919 141.666 93.5534 141.323 93.4518L136.399 91.9461C136.177 91.8815 136.001 91.7244 135.908 91.512C135.816 91.2995 135.816 91.0686 135.908 90.8654C136.177 90.2834 136.316 89.6276 136.306 88.981C136.167 89.0272 135.973 89.1103 135.714 89.2858C134.585 90.0156 133.483 90.8007 132.428 91.6321C131.91 92.0385 131.373 92.4819 131.002 93.0084C130.299 94.0245 130.105 95.4655 130.429 97.4145C131.04 101.22 133.002 104.73 135.038 107.972C135.27 108.342 135.158 108.822 134.788 109.053C134.659 109.136 134.511 109.173 134.372 109.173V109.155ZM158.891 93.7196C158.891 93.7196 158.891 93.7474 158.891 93.7658C158.901 93.9783 159.049 94.2369 159.234 94.5325C159.336 94.6988 159.437 94.865 159.548 95.0313C159.428 94.7265 159.299 94.4309 159.16 94.1446C159.058 93.9321 158.965 93.8028 158.901 93.7289L158.891 93.7196Z" fill="#173F5F"/>
		<path d="M135.584 99.5113C135.445 99.5113 135.279 99.4836 135.121 99.4005C134.862 99.2712 134.446 98.9386 134.529 98.1165L134.705 96.3522C134.705 96.2968 134.723 96.2322 134.742 96.1767C134.742 96.1305 134.76 96.0844 134.77 96.0474C134.89 95.6317 135.334 95.4008 135.751 95.5209C135.769 95.5209 135.797 95.5301 135.816 95.5394C135.825 95.5394 135.834 95.5394 135.843 95.5394C135.936 95.5578 136.019 95.5855 136.093 95.6225C136.732 95.8349 137.352 96.1121 137.935 96.4446C138.472 96.7494 138.583 97.1466 138.583 97.4237C138.583 97.784 138.398 98.098 138.046 98.3567C137.445 98.7908 136.778 99.1326 136.084 99.3912C136.001 99.4189 135.816 99.4928 135.575 99.4928L135.584 99.5113ZM136.195 97.3591L136.158 97.6824C136.278 97.627 136.39 97.5623 136.501 97.4976C136.399 97.4514 136.288 97.4053 136.186 97.3591H136.195Z" fill="#173F5F"/>
		<path d="M153.625 106.568C153.56 106.568 153.486 106.568 153.421 106.559C152.458 106.439 151.57 105.571 151.153 104.804C150.764 104.102 150.709 103.4 150.987 102.818C151.486 101.784 152.754 101.627 153.171 101.58C153.662 101.525 154.161 101.488 154.652 101.479C155.106 101.47 155.596 101.479 156.077 101.673C156.716 101.922 157.188 102.458 157.299 103.058C157.373 103.428 157.308 103.834 157.133 104.222C156.698 105.164 154.939 106.568 153.634 106.568H153.625ZM154.828 103.04C154.772 103.04 154.726 103.04 154.68 103.04C154.235 103.04 153.8 103.077 153.365 103.132C152.643 103.225 152.458 103.4 152.403 103.502C152.366 103.585 152.384 103.779 152.532 104.047C152.829 104.582 153.365 104.961 153.615 104.998C154.087 105.035 155.439 104.111 155.698 103.557C155.744 103.456 155.753 103.372 155.753 103.345C155.744 103.289 155.652 103.188 155.504 103.132C155.318 103.058 155.069 103.04 154.837 103.04H154.828Z" fill="#173F5F"/>
		<path d="M135.223 94.8743C134.705 94.8743 134.196 94.5879 133.946 94.1076C133.761 93.7381 133.89 93.2855 134.251 93.0731L134.575 92.8791C134.751 92.7128 134.992 92.6204 135.251 92.6666C135.418 92.6943 135.714 92.7405 135.982 92.9437C136.427 93.2855 136.547 93.8952 136.26 94.3478C136.14 94.5325 135.982 94.6618 135.769 94.7542C135.594 94.8281 135.408 94.865 135.223 94.865V94.8743Z" fill="#173F5F"/>
		<path d="M139.842 96.5832C139.787 96.5832 139.731 96.5832 139.666 96.5832C139.314 96.5462 139.028 96.4169 138.805 96.2045C138.426 95.8257 138.361 95.2438 138.639 94.8281C138.759 94.6526 138.944 94.5325 139.157 94.4956C139.277 94.4771 139.398 94.4679 139.518 94.4679C139.731 94.3847 139.981 94.3755 140.212 94.4494C140.416 94.5141 140.712 94.6711 140.934 95.0683C140.971 95.1329 141.064 95.2992 141.073 95.5301C141.073 95.798 140.971 96.0659 140.749 96.2599C140.509 96.4816 140.185 96.6016 139.824 96.6016L139.842 96.5832Z" fill="#173F5F"/>
		<path d="M148.959 99.2527C148.876 99.2527 148.793 99.2434 148.709 99.2157C148.293 99.0772 148.071 98.6338 148.21 98.2274C148.441 97.5438 149.07 97.045 149.792 96.9803C150.514 96.9157 151.227 97.3129 151.56 97.9502C151.764 98.3382 151.616 98.8093 151.236 99.0125C150.857 99.2157 150.376 99.0679 150.172 98.6892C150.126 98.6061 150.015 98.5599 149.922 98.5507C149.829 98.5507 149.728 98.643 149.7 98.7262C149.589 99.0587 149.283 99.2619 148.95 99.2619L148.959 99.2527Z" fill="#173F5F"/>
		<path d="M157.188 99.1234C156.901 99.1234 156.624 98.9663 156.485 98.6892C156.401 98.5322 156.216 98.4029 156.031 98.4029C155.846 98.4029 155.652 98.5045 155.559 98.6615C155.337 99.031 154.856 99.1603 154.485 98.9386C154.106 98.7169 153.986 98.2366 154.208 97.8671C154.596 97.2113 155.328 96.8141 156.087 96.8326C156.846 96.8603 157.549 97.3129 157.892 97.9872C158.086 98.3752 157.929 98.8462 157.54 99.0402C157.429 99.0956 157.308 99.1234 157.188 99.1234Z" fill="#173F5F"/>
	</g>
	<defs>
		<clipPath id="clip0_27_333">
			<rect width="166" height="166" fill="white"/>
		</clipPath>
	</defs>
</svg>
